<svg version="1.0" xmlns="http://www.w3.org/2000/svg"
     width="512" height="512" viewBox="0 0 512 512"
     preserveAspectRatio="xMidYMid meet">

    <g transform="translate(0.000000,512.000000) scale(0.100000,-0.100000)"
       fill="#000000" stroke="none">
        <path d="M1752 4885 c-258 -86 -479 -273 -594 -506 -92 -185 -113 -271 -112
-454 1 -184 20 -257 116 -452 88 -177 296 -375 482 -457 77 -34 183 -62 291
-77 127 -17 296 9 465 73 85 32 235 136 316 220 189 195 284 427 284 697 0 96
-5 143 -25 222 -24 96 -65 207 -90 239 -6 8 -23 35 -37 60 -69 118 -229 266
-383 351 -162 90 -277 119 -468 118 -134 0 -148 -2 -245 -34z m390 -189 c35
-8 75 -17 89 -20 15 -2 40 -11 57 -20 17 -9 36 -16 42 -16 6 0 23 -8 38 -18
15 -10 53 -36 84 -56 134 -88 246 -243 299 -412 10 -33 20 -77 21 -97 2 -20 6
-37 11 -37 11 0 8 -174 -4 -227 -27 -112 -44 -162 -77 -228 -43 -85 -125 -188
-187 -235 -26 -19 -54 -42 -63 -50 -104 -93 -407 -155 -562 -116 -30 7 -71 16
-91 20 -90 16 -268 131 -347 225 -82 98 -164 253 -178 338 -16 103 -22 205
-14 268 15 124 21 145 63 235 62 134 176 270 274 326 26 16 57 36 67 46 11 10
24 18 29 18 5 0 24 7 43 16 99 47 292 66 406 40z"/>
        <path d="M3455 2874 c-11 -3 -67 -14 -125 -25 -58 -11 -127 -27 -155 -36 -67
-21 -304 -139 -335 -168 -14 -12 -41 -33 -61 -46 -78 -52 -215 -195 -281 -292
-53 -80 -128 -225 -128 -248 0 -10 -4 -20 -9 -23 -5 -3 -15 -30 -21 -58 -7
-29 -17 -58 -22 -65 -43 -55 -43 -602 0 -656 5 -7 13 -28 16 -47 23 -121 131
-323 247 -466 92 -113 264 -261 354 -305 17 -8 50 -26 75 -41 46 -28 146 -63
285 -101 71 -19 104 -22 290 -21 119 0 227 5 250 11 89 25 183 53 228 69 77
27 279 144 343 199 124 105 256 260 321 375 46 81 109 230 123 292 6 29 19 80
28 113 23 88 22 415 -2 505 -9 36 -22 83 -27 105 -12 45 -131 295 -151 316 -7
8 -25 32 -39 54 -36 56 -183 208 -246 256 -29 21 -77 57 -106 79 -59 44 -227
126 -325 159 -116 39 -252 63 -382 66 -69 2 -134 2 -145 -1z m410 -248 c118
-32 293 -116 385 -185 84 -63 206 -190 254 -264 56 -85 122 -231 145 -319 11
-42 25 -130 31 -195 10 -104 9 -132 -8 -238 -27 -166 -41 -211 -110 -355 -80
-166 -242 -336 -421 -440 -82 -48 -229 -103 -306 -115 -22 -3 -58 -11 -80 -17
-71 -21 -287 -15 -395 10 -106 25 -179 47 -227 68 -17 8 -34 14 -38 14 -3 0
-21 10 -38 23 -18 13 -49 32 -70 43 -21 10 -81 57 -133 104 -135 122 -215 235
-279 395 -33 81 -40 104 -64 203 -26 105 -19 478 9 506 5 5 10 18 10 27 0 9
22 66 48 126 47 105 104 200 153 254 13 14 40 43 59 65 38 41 157 139 200 163
137 78 227 114 350 142 130 29 388 21 525 -15z"/>
        <path d="M3506 2417 c-38 -32 -40 -37 -45 -106 l-6 -73 -36 -12 c-39 -14 -57
-26 -132 -92 -46 -41 -106 -143 -114 -194 -5 -36 -5 -141 1 -165 13 -56 51
-122 100 -170 54 -55 138 -100 348 -190 115 -49 145 -87 139 -177 -1 -23 -57
-85 -92 -104 -17 -8 -56 -14 -97 -14 -89 0 -126 23 -167 105 -37 74 -84 109
-134 100 -100 -19 -126 -96 -73 -210 36 -75 127 -162 205 -196 l57 -24 0 -51
c0 -72 16 -108 59 -138 46 -32 85 -33 127 -4 36 25 54 75 54 151 0 43 1 44 53
70 102 50 208 168 223 248 4 19 11 39 16 46 10 13 6 114 -6 148 -31 88 -62
127 -147 184 -48 32 -111 67 -140 76 -30 10 -64 25 -76 33 -13 8 -23 12 -23 9
0 -8 -85 32 -133 62 -42 26 -77 85 -77 131 0 88 84 164 180 162 88 -1 132 -30
165 -108 19 -47 85 -88 128 -80 43 8 86 53 93 98 9 53 -34 135 -111 210 -68
66 -99 87 -127 88 -15 0 -18 9 -18 55 0 143 -100 211 -194 132z"/>
        <path d="M2530 2809 c-205 -73 -347 -94 -550 -85 -135 6 -154 9 -305 41 -44 9
-98 21 -120 26 -22 4 -91 8 -153 9 -89 0 -135 -5 -212 -25 -101 -26 -261 -85
-288 -107 -8 -7 -22 -17 -33 -23 -155 -87 -351 -290 -436 -450 -20 -38 -39
-72 -43 -75 -12 -10 -68 -156 -83 -220 -40 -165 -42 -190 -42 -565 0 -361 1
-372 23 -440 13 -38 33 -86 44 -105 33 -55 138 -158 189 -184 103 -54 131 -56
974 -55 495 0 787 4 803 10 39 15 70 47 77 81 10 43 -33 104 -82 118 -26 8
-205 10 -581 8 l-542 -3 0 308 c0 330 -2 346 -52 381 -40 28 -83 21 -117 -21
l-31 -38 0 -315 0 -315 -167 3 c-162 3 -170 4 -212 30 -54 33 -92 95 -109 178
-16 78 -16 674 -1 776 6 40 18 98 26 128 80 304 339 590 608 670 39 12 80 26
93 32 37 19 360 17 387 -2 6 -4 33 -11 60 -15 28 -5 57 -10 65 -12 8 -1 44 -8
80 -13 36 -6 81 -14 100 -18 46 -9 251 -9 315 0 114 17 199 34 235 47 226 86
244 96 264 146 15 36 5 70 -33 102 -33 29 -48 28 -151 -8z"/>
    </g>
</svg>
