<svg version="1.0" xmlns="http://www.w3.org/2000/svg"
     width="512" height="512" viewBox="0 0 512 512"
     preserveAspectRatio="xMidYMid meet">

    <g transform="translate(0.000000,512.000000) scale(0.100000,-0.100000)"
       fill="#000000" stroke="none">
        <path d="M1770 4484 c-41 -14 -89 -31 -107 -39 -17 -8 -34 -15 -37 -15 -13 0
-148 -98 -193 -141 -26 -25 -67 -70 -90 -100 -44 -58 -113 -183 -113 -206 0
-7 -4 -21 -10 -31 -35 -63 -55 -319 -30 -396 5 -17 19 -63 30 -101 21 -74 103
-220 156 -277 29 -32 96 -93 144 -132 14 -11 60 -39 105 -62 211 -112 506
-114 724 -4 202 101 366 297 417 498 10 39 22 72 26 72 11 0 10 307 0 312 -4
2 -18 39 -31 83 -73 252 -283 456 -553 539 -76 23 -102 26 -224 25 -118 -1
-150 -5 -214 -25z m291 -239 c102 -18 176 -45 238 -88 221 -151 299 -449 181
-692 -64 -132 -135 -199 -280 -266 -73 -33 -77 -34 -210 -34 -131 0 -137 1
-212 34 -143 62 -243 166 -304 316 -26 63 -28 82 -29 190 0 104 3 128 24 180
13 33 30 67 38 76 7 8 13 20 13 26 0 22 92 122 149 161 67 47 141 77 238 97
37 7 69 14 69 14 1 1 39 -6 85 -14z"/>
        <path d="M1940 4110 c0 -40 -4 -52 -17 -56 -47 -14 -103 -48 -124 -77 -21 -27
-24 -43 -24 -111 l0 -78 43 -39 c24 -21 64 -45 90 -54 81 -29 116 -50 132 -79
14 -26 14 -28 -9 -47 -31 -25 -104 -25 -178 1 -32 11 -60 17 -63 12 -4 -4 -12
-32 -19 -62 -10 -49 -10 -56 6 -68 18 -13 88 -35 113 -35 27 0 40 -19 40 -59
l0 -39 58 3 57 3 5 49 c4 44 8 50 33 57 107 29 166 160 118 265 -23 51 -62 79
-171 124 -80 33 -85 37 -88 67 -3 29 0 33 34 42 38 11 117 1 155 -20 12 -6 24
-7 28 -2 8 9 43 115 39 117 -2 1 -14 7 -28 14 -14 7 -45 16 -70 20 -44 7 -45
8 -50 52 l-5 45 -52 3 -53 3 0 -51z"/>
        <path d="M4115 4353 c-44 -8 -97 -16 -118 -20 -20 -3 -40 -9 -43 -14 -3 -5
-20 -9 -39 -9 -19 0 -37 -5 -41 -11 -4 -7 -24 -9 -50 -6 -24 2 -44 1 -44 -3 0
-4 -35 -11 -77 -15 -43 -4 -82 -10 -88 -15 -5 -4 -33 -10 -62 -13 -68 -8 -92
-21 -109 -62 -15 -36 -8 -69 18 -96 8 -8 44 -51 81 -96 l67 -83 -510 -509
c-280 -281 -510 -515 -510 -521 0 -5 -5 -10 -10 -10 -6 0 -111 -100 -234 -222
-123 -123 -255 -253 -293 -289 l-69 -65 -90 91 c-50 50 -101 99 -115 108 -13
9 -21 17 -17 17 4 0 -96 104 -221 230 -125 127 -234 230 -242 230 -8 0 -21 6
-27 13 -23 22 -131 14 -177 -13 -35 -21 -887 -863 -943 -933 -18 -22 -22 -40
-22 -90 1 -61 1 -63 49 -109 27 -27 55 -48 64 -48 9 0 18 -4 21 -9 3 -5 34 -9
68 -9 52 0 69 4 98 26 19 14 199 191 400 394 l365 367 157 -162 c392 -404 496
-507 535 -532 38 -24 50 -27 107 -23 l64 4 899 900 899 901 45 -44 c59 -60 94
-77 157 -77 79 0 112 47 132 189 7 50 17 94 21 99 5 6 9 22 9 37 0 15 5 31 10
34 6 3 10 19 10 34 0 15 3 31 8 35 4 4 7 11 8 14 10 78 18 112 26 112 5 0 8
11 6 24 -1 13 3 30 10 39 8 9 15 53 17 109 3 61 1 88 -5 78 -6 -9 -10 -10 -10
-3 0 33 -81 45 -185 26z"/>
        <path d="M3654 3105 l-252 -253 -1 -717 c-1 -525 2 -721 10 -731 9 -11 59 -14
244 -14 l232 0 26 26 26 26 0 942 c0 517 3 949 6 959 6 13 2 17 -16 16 -17 -1
-95 -73 -275 -254z"/>
        <path d="M3160 2622 c0 -6 -106 -116 -235 -245 l-236 -235 3 -350 3 -350 24
-26 24 -26 221 0 221 0 18 33 c16 30 17 77 15 617 l-3 585 -27 3 c-16 2 -28
-1 -28 -6z"/>
        <path d="M2468 1993 c-10 -2 -18 -8 -18 -13 0 -5 -18 -26 -39 -47 -275 -268
-401 -399 -410 -425 -18 -51 -13 -75 18 -97 27 -20 43 -21 245 -21 l216 0 15
24 c14 21 17 67 18 300 2 222 -1 277 -11 281 -8 3 -14 4 -15 4 -1 -1 -10 -3
-19 -6z"/>
        <path d="M885 1061 l30 -6 0 -165 0 -165 -30 -6 c-16 -4 26 -7 95 -7 69 0 112
3 95 7 l-30 6 -3 83 c-3 81 -2 82 21 82 28 0 45 -17 57 -57 6 -20 8 0 8 67 0
71 -2 86 -8 60 -9 -37 -33 -60 -62 -60 -16 0 -18 9 -18 80 l0 80 34 0 c44 0
88 -36 126 -104 l30 -51 0 83 0 82 -187 -1 c-104 -1 -174 -4 -158 -8z"/>
        <path d="M1270 1061 l25 -7 0 -164 0 -164 -25 -7 c-14 -4 27 -7 90 -7 63 0
104 3 90 7 l-25 7 0 164 0 164 25 7 c14 4 -27 7 -90 7 -63 0 -104 -3 -90 -7z"/>
        <path d="M1515 1063 c51 -13 55 -27 55 -178 0 -151 -2 -159 -50 -168 -14 -2 9
-4 50 -4 41 0 65 2 53 4 -40 8 -44 24 -41 162 l3 131 115 -150 c99 -129 119
-150 143 -150 l27 0 0 158 c0 170 4 187 50 195 14 2 -9 4 -50 4 -46 1 -63 -2
-45 -6 l30 -6 3 -109 3 -110 -88 117 -88 116 -95 -1 c-52 0 -86 -3 -75 -5z"/>
        <path d="M2076 1013 c-10 -32 -21 -65 -23 -73 -4 -12 -3 -12 5 -1 7 10 15 -3
30 -48 l21 -61 -50 0 c-27 0 -49 -3 -49 -7 0 -5 22 -6 50 -5 47 4 50 2 60 -24
19 -50 17 -67 -10 -75 -14 -4 58 -7 160 -7 102 1 175 3 163 5 -40 8 -44 24
-41 162 l3 131 115 -150 c99 -129 119 -150 143 -150 l27 0 0 158 c0 170 4 187
50 195 14 2 -9 4 -50 4 -46 1 -63 -2 -45 -6 l30 -6 3 -109 3 -110 -88 117 -88
116 -95 -1 c-52 0 -86 -3 -75 -5 51 -13 55 -27 55 -178 0 -96 -4 -145 -12
-153 -7 -7 -29 -12 -50 -12 -46 0 -51 10 -124 212 -46 128 -51 138 -75 138
-22 0 -28 -7 -43 -57z"/>
        <path d="M2896 1055 c-49 -17 -92 -59 -107 -103 -15 -46 -6 -127 18 -160 46
-62 139 -96 206 -74 l32 10 -37 1 c-27 1 -42 8 -62 31 -31 37 -40 80 -34 165
5 81 29 119 79 122 45 4 66 -14 100 -84 l28 -58 0 85 c0 61 -3 79 -9 63 -11
-28 -16 -28 -71 -3 -51 23 -89 24 -143 5z"/>
        <path d="M3175 1061 l30 -6 0 -165 0 -165 -30 -6 c-16 -4 59 -7 168 -8 l197
-1 0 78 -1 77 -19 -36 c-11 -21 -35 -53 -53 -73 -31 -32 -40 -36 -86 -36 l-51
0 0 85 c0 78 2 85 20 85 25 0 53 -31 61 -68 4 -15 7 16 7 68 0 71 -2 87 -9 65
-10 -33 -34 -55 -61 -55 -16 0 -18 9 -18 80 l0 80 39 0 c47 0 90 -32 133 -99
l28 -45 0 77 0 77 -192 -1 c-106 -1 -179 -4 -163 -8z"/>
        <path d="M3600 1063 c45 -8 50 -27 50 -173 0 -146 -5 -165 -50 -173 -14 -2 62
-5 168 -6 l192 -1 0 88 0 87 -31 -52 c-42 -72 -91 -113 -135 -113 l-34 0 2
167 3 168 30 6 c17 4 -26 7 -95 6 -69 0 -114 -2 -100 -4z"/>
        <path d="M3965 1061 c27 -11 43 -31 99 -123 45 -74 47 -78 44 -145 -3 -66 -4
-68 -33 -74 -16 -4 24 -7 90 -6 66 0 110 2 98 4 -37 7 -45 27 -41 112 2 44 1
77 -1 75 -6 -6 -91 127 -91 143 0 6 12 14 28 16 15 2 -27 4 -93 5 -71 0 -112
-3 -100 -7z"/>
        <path d="M4268 1063 c26 -5 28 -22 7 -66 -8 -18 -10 -24 -3 -13 32 47 60 75
81 79 12 2 -7 4 -43 4 -36 0 -55 -2 -42 -4z"/>
        <path d="M4240 940 c-6 -11 -8 -20 -6 -20 3 0 10 9 16 20 6 11 8 20 6 20 -3 0
-10 -9 -16 -20z"/>
        <path d="M3096 783 c-6 -14 -5 -15 5 -6 7 7 10 15 7 18 -3 3 -9 -2 -12 -12z"/>
        <path d="M1978 745 c-10 -13 -30 -26 -45 -28 -16 -2 6 -4 47 -5 44 0 65 3 50
7 -13 4 -27 16 -30 28 -5 21 -5 21 -22 -2z"/>
        <path d="M3064 744 c-18 -14 -18 -15 4 -4 12 6 22 13 22 15 0 8 -5 6 -26 -11z"/>
    </g>
</svg>
