<svg version="1.0" xmlns="http://www.w3.org/2000/svg"
 width="114" height="100" viewBox="0 0 114 100"
 preserveAspectRatio="xMidYMid meet">

<g transform="translate(0.000000,100.000000) scale(0.100000,-0.100000)"
fill="#000000" stroke="none">
<path d="M1007 953 c-4 -3 -7 -57 -7 -120 l0 -113 45 0 45 0 0 120 0 120 -38
0 c-21 0 -42 -3 -45 -7z"/>
<path d="M937 928 c-58 -31 -106 -32 -234 -8 -176 33 -238 27 -378 -39 -102
-49 -109 -54 -91 -67 27 -19 72 -18 142 6 58 20 65 20 159 6 120 -18 156 -41
48 -30 -60 5 -77 4 -99 -11 -26 -17 -26 -17 -7 -37 13 -13 43 -22 94 -29 41
-6 104 -22 141 -36 88 -34 143 -29 215 18 l53 34 0 108 c0 59 -1 106 -2 106
-2 -1 -20 -10 -41 -21z"/>
<path d="M500 631 c-121 -64 -85 -250 51 -268 86 -12 162 56 162 142 0 111
-115 179 -213 126z m95 -27 c13 -8 26 -22 29 -31 5 -12 1 -14 -19 -11 -34 7
-34 -24 1 -46 33 -22 31 -76 -3 -91 -13 -5 -23 -15 -23 -22 0 -7 -4 -13 -10
-13 -5 0 -10 6 -10 14 0 7 -9 16 -20 19 -21 5 -37 33 -26 45 4 3 16 1 26 -6
18 -11 20 -9 20 9 0 12 -11 32 -25 45 -32 29 -32 49 1 79 32 29 29 29 59 9z"/>
<path d="M547 565 c-4 -8 -2 -17 3 -20 6 -4 10 3 10 14 0 25 -6 27 -13 6z"/>
<path d="M580 464 c0 -14 4 -23 10 -19 6 3 10 15 10 26 0 10 -4 19 -10 19 -5
0 -10 -12 -10 -26z"/>
<path d="M377 624 c-12 -12 4 -24 32 -24 16 0 34 7 41 15 11 13 7 15 -27 15
-22 0 -43 -3 -46 -6z"/>
<path d="M692 618 c5 -15 67 -18 71 -3 1 6 -15 11 -37 13 -28 3 -37 0 -34 -10z"/>
<path d="M325 560 c-4 -6 11 -10 39 -10 25 0 48 5 51 10 4 6 -11 10 -39 10
-25 0 -48 -4 -51 -10z"/>
<path d="M725 560 c3 -5 26 -10 51 -10 24 0 44 5 44 10 0 6 -23 10 -51 10 -31
0 -48 -4 -44 -10z"/>
<path d="M247 514 c-19 -19 0 -25 76 -22 48 2 81 7 80 13 -3 11 -145 19 -156
9z"/>
<path d="M797 513 c-94 -5 -75 -23 24 -23 64 0 79 3 79 15 0 8 -8 14 -17 13
-10 -1 -49 -3 -86 -5z"/>
<path d="M325 450 c-4 -6 13 -10 45 -10 32 0 49 4 45 10 -3 6 -24 10 -45 10
-21 0 -42 -4 -45 -10z"/>
<path d="M725 450 c-4 -6 13 -10 44 -10 28 0 51 5 51 10 0 6 -20 10 -44 10
-25 0 -48 -4 -51 -10z"/>
<path d="M382 404 c-22 -10 -2 -24 34 -24 24 0 34 4 32 13 -5 13 -44 19 -66
11z"/>
<path d="M697 404 c-16 -17 -5 -25 31 -22 20 2 37 8 37 13 0 12 -57 19 -68 9z"/>
<path d="M255 334 c-16 -8 -45 -27 -62 -40 l-33 -25 0 -104 0 -104 53 24 c63
30 88 31 219 5 157 -30 230 -27 335 15 49 19 104 45 123 56 32 20 33 22 15 35
-27 20 -65 17 -132 -8 -57 -21 -58 -21 -170 -3 -125 19 -156 40 -43 29 56 -5
75 -3 94 10 15 9 23 22 20 30 -7 19 -57 36 -103 36 -20 0 -74 14 -121 30 -95
33 -151 37 -195 14z"/>
<path d="M54 277 c-2 -7 -3 -60 -2 -118 l3 -104 43 -3 42 -3 0 120 0 121 -40
0 c-24 0 -43 -5 -46 -13z"/>
</g>
</svg>